<svg id="Layer_1" data-name="Layer 1" xmlns="http://www.w3.org/2000/svg" viewBox="0 0 212.64 220.74"><defs><style>.cls-1{fill:#5d91cc;}</style></defs><title>Growly BIS</title><path class="cls-1" d="M190,159.74H22.6a2.1,2.1,0,0,1,0-4.19H190a2.1,2.1,0,1,1,0,4.19Z"/><path class="cls-1" d="M69.87,159.74H35.66a2.09,2.09,0,0,1-2.09-2.09V102.77a2.1,2.1,0,0,1,2.09-2.1H69.87a2.1,2.1,0,0,1,2.09,2.1v54.88A2.09,2.09,0,0,1,69.87,159.74Zm-32.11-4.19h30V104.86h-30Z"/><path class="cls-1" d="M123.42,159.74H89.22a2.08,2.08,0,0,1-2.09-2.09V82.93a2.08,2.08,0,0,1,2.09-2.09h34.2a2.09,2.09,0,0,1,2.1,2.09v74.72A2.09,2.09,0,0,1,123.42,159.74Zm-32.1-4.19h30V85h-30Z"/><path class="cls-1" d="M177,159.74h-34.2a2.09,2.09,0,0,1-2.1-2.09V63.1a2.1,2.1,0,0,1,2.1-2.1H177a2.1,2.1,0,0,1,2.1,2.1v94.55A2.09,2.09,0,0,1,177,159.74Zm-32.1-4.19h30V65.19h-30Z"/></svg>