<svg id="Layer_1" data-name="Layer 1" xmlns="http://www.w3.org/2000/svg" viewBox="0 0 223 200.47"><defs><style>.cls-1{fill:#5d91cc;}</style></defs><title>Growly BIS</title><path class="cls-1" d="M137.21,142.48a5.4,5.4,0,0,1-2.8-.79l-22-13.18-22,13.18h0a5.42,5.42,0,0,1-8.08-5.8l5.67-26.07L69.16,94.08A5.42,5.42,0,0,1,72,84.53L96,81.8l11.57-23.88a5.37,5.37,0,0,1,4.87-3.05h0a5.38,5.38,0,0,1,4.88,3.05L128.89,81.8l24,2.73a5.42,5.42,0,0,1,2.85,9.55l-18.93,15.74,5.67,26.07a5.35,5.35,0,0,1-2.13,5.56A5.44,5.44,0,0,1,137.21,142.48ZM112.45,59.06a1.19,1.19,0,0,0-1.1.69L99.28,84.67a2.1,2.1,0,0,1-1.65,1.17L72.48,88.7a1.18,1.18,0,0,0-1,.86,1.2,1.2,0,0,0,.39,1.3l19.9,16.55a2.08,2.08,0,0,1,.71,2l-5.94,27.32A1.17,1.17,0,0,0,87,138a1.19,1.19,0,0,0,1.34.06h0l23-13.83a2.09,2.09,0,0,1,2.16,0l23,13.83a1.23,1.23,0,0,0,1.83-1.32l-6-27.32a2.1,2.1,0,0,1,.71-2l19.91-16.55a1.2,1.2,0,0,0,.39-1.3,1.18,1.18,0,0,0-1-.86l-25.15-2.86a2.13,2.13,0,0,1-1.65-1.17L113.55,59.75a1.19,1.19,0,0,0-1.1-.69Z"/><path class="cls-1" d="M112.45,169a70.37,70.37,0,1,1,70.37-70.37A70.45,70.45,0,0,1,112.45,169Zm0-136.55a66.18,66.18,0,1,0,66.18,66.18A66.25,66.25,0,0,0,112.45,32.49Z"/></svg>