<svg id="Layer_1" data-name="Layer 1" xmlns="http://www.w3.org/2000/svg" viewBox="0 20 212.64 220.74">
    <defs>
        <style>.cls-1{fill:#5d91cc;stroke:#5d91cc;stroke-miterlimit:10;stroke-width:3px;}</style>
    </defs>
    <title>Growly BIS</title>
    <path class="cls-1" d="M167.75,186.59H25.33a1.95,1.95,0,0,1,0-3.89H167.75a1.95,1.95,0,0,1,0,3.89Z"/>
    <path class="cls-1"
          d="M66.69,186.59h-32a1.94,1.94,0,0,1-1.94-1.94V133.34a1.94,1.94,0,0,1,1.94-1.94h32a1.94,1.94,0,0,1,2,1.94v51.31A1.94,1.94,0,0,1,66.69,186.59Zm-30-3.89H64.75V135.29H36.66Z"/>
    <path class="cls-1"
          d="M112.53,186.59h-32a1.94,1.94,0,0,1-1.94-1.94V114.8a1.94,1.94,0,0,1,1.94-1.94h32a1.94,1.94,0,0,1,0,3.88h-30v66h28.08V145.54a1.95,1.95,0,1,1,3.89,0v39.11A1.94,1.94,0,0,1,112.53,186.59Z"/>
    <path class="cls-1"
          d="M126.39,105.44a2,2,0,0,1-2-2V82.14a1.94,1.94,0,0,1,2-1.94h32a2,2,0,0,1,1.95,1.94v20.59a1.95,1.95,0,0,1-3.89,0V84.09H128.33v19.4A1.94,1.94,0,0,1,126.39,105.44Z"/>
    <path class="cls-1"
          d="M158.36,186.59h-32a1.94,1.94,0,0,1-2-1.94V161.24a1.95,1.95,0,1,1,3.89,0V182.7h28.09V161.94a1.95,1.95,0,0,1,3.89,0v22.71A2,2,0,0,1,158.36,186.59Z"/>
    <path class="cls-1"
          d="M143.13,167.33a35,35,0,1,1,35-35A35,35,0,0,1,143.13,167.33Zm0-66.08a31.1,31.1,0,1,0,31.1,31.1A31.13,31.13,0,0,0,143.13,101.25Z"/>
    <path class="cls-1"
          d="M190.46,187.23a5.34,5.34,0,0,1-3.8-1.57L162,161a2,2,0,0,1-.57-1.38,2,2,0,0,1,.57-1.37l7-7a2,2,0,0,1,2.75,0l24.71,24.72a5.38,5.38,0,0,1,0,7.59l-2.19,2.19A5.34,5.34,0,0,1,190.46,187.23Zm-24.39-27.66,23.34,23.34a1.48,1.48,0,0,0,2.1,0l2.19-2.19a1.47,1.47,0,0,0,0-2.09l-23.34-23.34Z"/>
    <path class="cls-1"
          d="M142.93,148.08a12.28,12.28,0,0,1-10.05-5.1,1.95,1.95,0,1,1,3.09-2.37c4.58,6,11.17,2.68,11.45,2.54l.16-.08a4.11,4.11,0,0,0,2.25-4.32,5.23,5.23,0,0,0-3.57-4.37l-7.39-2.19c-4.1-1.22-6.25-3.94-6.2-7.89a7.39,7.39,0,0,1,2.49-5.64c1.87-1.64,4.63-2.48,8.24-2.41a10.6,10.6,0,0,1,10.32,7.15,1.95,1.95,0,0,1-3.74,1.09c-.14-.45-1.48-4.3-6.62-4.35-2.62,0-4.53.47-5.63,1.44a3.53,3.53,0,0,0-1.17,2.77c0,1.52.37,3.21,3.42,4.11l7.37,2.19a9.12,9.12,0,0,1,6.35,7.75,8,8,0,0,1-4.56,8.23A14,14,0,0,1,142.93,148.08Z"/>
    <path class="cls-1"
          d="M143.38,120.14a1.94,1.94,0,0,1-1.94-2v-5.82a1.95,1.95,0,0,1,3.89,0v5.82A2,2,0,0,1,143.38,120.14Z"/>
    <path class="cls-1"
          d="M143.38,154.27a1.94,1.94,0,0,1-1.94-2V146.5a1.95,1.95,0,0,1,3.89,0v5.82A2,2,0,0,1,143.38,154.27Z"/>
</svg>