<svg id="Layer_1" data-name="Layer 1" xmlns="http://www.w3.org/2000/svg" viewBox="0 0 223 200.47"><defs><style>.cls-1{fill:#5d91cc;stroke:#5d91cc;stroke-miterlimit:10;stroke-width:3px;}</style></defs><title>Growly BIS</title><path class="cls-1" d="M186.23,179.52H36.77a2.09,2.09,0,0,1-2.1-2.09V57.35a2.1,2.1,0,0,1,2.1-2.1H186.23a2.1,2.1,0,0,1,2.1,2.1V177.43A2.09,2.09,0,0,1,186.23,179.52ZM38.86,175.33H184.14V59.44H38.86Z"/><path class="cls-1" d="M186.23,82.66H36.76a2.1,2.1,0,0,1-2.1-2.09V57.35a2.1,2.1,0,0,1,2.1-2.1H186.23a2.09,2.09,0,0,1,2.09,2.1V80.57A2.09,2.09,0,0,1,186.23,82.66ZM38.86,78.47H184.13v-19H38.86Z"/><path class="cls-1" d="M48.34,71.06a2.71,2.71,0,0,1-.41,0,1.79,1.79,0,0,1-.39-.13,1.55,1.55,0,0,1-.36-.19,1.92,1.92,0,0,1-.32-.26A2.06,2.06,0,0,1,46.25,69a3,3,0,0,1,0-.42,2.84,2.84,0,0,1,.13-.38,1.85,1.85,0,0,1,.19-.37,2,2,0,0,1,.26-.31,2.08,2.08,0,0,1,.32-.27,3,3,0,0,1,.36-.19,2.91,2.91,0,0,1,.39-.12,2.1,2.1,0,0,1,1.9.58,2,2,0,0,1,.26.31c.07.12.13.24.19.37a2.78,2.78,0,0,1,.12.38,3,3,0,0,1,0,.42,2.1,2.1,0,0,1-.6,1.48,2.24,2.24,0,0,1-1.49.62Z"/><path class="cls-1" d="M66.78,71.06a2,2,0,0,1-.79-.17,2,2,0,0,1-.68-.45A2.07,2.07,0,0,1,64.69,69a3,3,0,0,1,0-.42,1.9,1.9,0,0,1,.13-.38,2.53,2.53,0,0,1,.18-.37,1.63,1.63,0,0,1,.27-.31,2.14,2.14,0,0,1,3,0,1.3,1.3,0,0,1,.26.31,1.85,1.85,0,0,1,.19.37,1.39,1.39,0,0,1,.12.38,2,2,0,0,1,0,.42,2.06,2.06,0,0,1-.61,1.48,2,2,0,0,1-.68.45A2,2,0,0,1,66.78,71.06Z"/><path class="cls-1" d="M57.56,71.06a2.05,2.05,0,0,1-.8-.17,2,2,0,0,1-.68-.45A2.06,2.06,0,0,1,55.47,69a3,3,0,0,1,0-.42,2.78,2.78,0,0,1,.12-.38,2.58,2.58,0,0,1,.19-.37,1.58,1.58,0,0,1,.26-.31,2.16,2.16,0,0,1,3,0,1.58,1.58,0,0,1,.26.31,2.58,2.58,0,0,1,.19.37c0,.12.09.26.13.38a3,3,0,0,1,0,.42,2.06,2.06,0,0,1-.61,1.48,2.19,2.19,0,0,1-1.49.62Z"/><path class="cls-1" d="M164.45,124.78H57c-2.11,0-3.82-6.11-3.82-13.65S54.88,97.47,57,97.47H164.45c2.11,0,3.82,6.12,3.82,13.66S166.56,124.78,164.45,124.78Z"/><path class="cls-1" d="M166.17,120.5H55.27a2.1,2.1,0,0,1,0-4.2h110.9a2.1,2.1,0,1,1,0,4.2Z"/><path class="cls-1" d="M166.17,138.94H55.27a2.1,2.1,0,1,1,0-4.19h110.9a2.1,2.1,0,1,1,0,4.19Z"/><path class="cls-1" d="M166.17,157.39h-74a2.1,2.1,0,1,1,0-4.19h74a2.1,2.1,0,1,1,0,4.19Z"/></svg>