<svg id="Layer_1" data-name="Layer 1" xmlns="http://www.w3.org/2000/svg" viewBox="0 0 213.99 232.01"><defs><style>.cls-1{fill:#5d91cc;stroke:#5d91cc;stroke-miterlimit:10;stroke-width:3px;}</style></defs><title>Growly BIS</title><path class="cls-1" d="M106.59,193.72a73.22,73.22,0,1,1,73.21-73.21A73.3,73.3,0,0,1,106.59,193.72Zm0-142.23a69,69,0,1,0,69,69A69.1,69.1,0,0,0,106.59,51.49Z"/><path class="cls-1" d="M106.59,73a2.1,2.1,0,0,1-2.1-2.1V61.93a2.1,2.1,0,1,1,4.19,0v8.95A2.1,2.1,0,0,1,106.59,73Z"/><path class="cls-1" d="M81.78,79.63a2.1,2.1,0,0,1-1.82-1l-4.48-7.75a2.1,2.1,0,1,1,3.63-2.1l4.48,7.75a2.1,2.1,0,0,1-1.81,3.15Z"/><path class="cls-1" d="M63.61,97.79a2.09,2.09,0,0,1-1-.28L54.81,93a2.1,2.1,0,1,1,2.1-3.63l7.75,4.48a2.09,2.09,0,0,1-1,3.91Z"/><path class="cls-1" d="M57,122.6H48a2.1,2.1,0,1,1,0-4.19h9a2.1,2.1,0,1,1,0,4.19Z"/><path class="cls-1" d="M55.86,151.89a2.09,2.09,0,0,1-1-3.91l7.75-4.47a2.1,2.1,0,1,1,2.1,3.63l-7.75,4.47A2.09,2.09,0,0,1,55.86,151.89Z"/><path class="cls-1" d="M77.3,173.33a2.1,2.1,0,0,1-1.82-3.14L80,162.44a2.09,2.09,0,1,1,3.63,2.09l-4.48,7.76A2.08,2.08,0,0,1,77.3,173.33Z"/><path class="cls-1" d="M106.59,181.18a2.1,2.1,0,0,1-2.1-2.1v-9a2.1,2.1,0,0,1,4.19,0v9A2.1,2.1,0,0,1,106.59,181.18Z"/><path class="cls-1" d="M135.88,173.33a2.09,2.09,0,0,1-1.82-1l-4.48-7.76a2.09,2.09,0,0,1,3.63-2.09l4.48,7.75a2.1,2.1,0,0,1-1.81,3.14Z"/><path class="cls-1" d="M157.31,151.89a2.08,2.08,0,0,1-1-.28l-7.75-4.47a2.09,2.09,0,1,1,2.09-3.63l7.75,4.47a2.09,2.09,0,0,1-1.05,3.91Z"/><path class="cls-1" d="M165.16,122.6h-8.95a2.1,2.1,0,0,1,0-4.19h8.95a2.1,2.1,0,1,1,0,4.19Z"/><path class="cls-1" d="M149.57,97.79a2.09,2.09,0,0,1-1-3.91l7.75-4.48A2.09,2.09,0,1,1,158.36,93l-7.75,4.48A2.08,2.08,0,0,1,149.57,97.79Z"/><path class="cls-1" d="M131.4,79.63a2.1,2.1,0,0,1-1.82-3.15l4.48-7.75a2.1,2.1,0,1,1,3.63,2.1l-4.48,7.75A2.09,2.09,0,0,1,131.4,79.63Z"/><path class="cls-1" d="M106.59,122.6a2.12,2.12,0,0,1-1-.27,2.1,2.1,0,0,1-1.06-1.82V87.09a2.1,2.1,0,0,1,4.19,0v29.76l17.82-10.47a2.1,2.1,0,1,1,2.13,3.61l-21,12.33A2.13,2.13,0,0,1,106.59,122.6Z"/></svg>