<svg width="51" height="51" viewBox="0 0 51 51" fill="none" xmlns="http://www.w3.org/2000/svg">
<path opacity="0.2" fill-rule="evenodd" clip-rule="evenodd" d="M9.97826 25.5C9.97826 34.0591 16.9409 41.0217 25.5 41.0217C34.0591 41.0217 41.0217 34.0591 41.0217 25.5C41.0217 16.9409 34.0591 9.97827 25.5 9.97827C16.9409 9.97827 9.97826 16.9409 9.97826 25.5ZM12.1956 25.5C12.1956 18.1638 18.1637 12.1956 25.5 12.1956C32.8362 12.1956 38.8043 18.1638 38.8043 25.5C38.8043 32.8362 32.8362 38.8043 25.5 38.8043C18.1637 38.8043 12.1956 32.8362 12.1956 25.5Z" fill="white"/>
<path opacity="0.5" fill-rule="evenodd" clip-rule="evenodd" d="M25.5 29.9348C27.9492 29.9348 29.9348 27.9493 29.9348 25.5C29.9348 23.0507 27.9492 21.0652 25.5 21.0652C23.0507 21.0652 21.0652 23.0507 21.0652 25.5C21.0652 27.9493 23.0507 29.9348 25.5 29.9348Z" fill="white"/>
<path fill-rule="evenodd" clip-rule="evenodd" d="M48.6407 14.78C48.052 15.2335 47.41 15.6215 46.7182 15.9175C48.0608 18.89 48.7826 22.144 48.7826 25.5C48.7826 38.3387 38.3387 48.7826 25.5 48.7826C12.6613 48.7826 2.21739 38.3387 2.21739 25.5C2.21739 12.6613 12.6613 2.21739 25.5 2.21739C29.9592 2.21739 34.313 3.52454 38.0382 5.90491C37.8298 6.48809 37.6957 7.10674 37.6957 7.76087C37.6957 10.8175 40.1825 13.3043 43.2391 13.3043C46.2958 13.3043 48.7826 10.8175 48.7826 7.76087C48.7826 4.7042 46.2958 2.21739 43.2391 2.21739C41.6337 2.21739 40.1969 2.91476 39.1835 4.00904C35.1146 1.42024 30.3638 0 25.5 0C11.4395 0 0 11.4395 0 25.5C0 39.5605 11.4395 51 25.5 51C39.5605 51 51 39.5605 51 25.5C51 21.7404 50.1762 18.0939 48.6407 14.78Z" fill="white"/>
</svg>
