<svg id="Layer_1" data-name="Layer 1" xmlns="http://www.w3.org/2000/svg" viewBox="0 0 213.99 232.01"><defs><style>.cls-1{fill:#5d91cc;}</style></defs><title>Growly BIS</title><path class="cls-1" d="M106.66,73.7a12.79,12.79,0,1,1,12.79-12.78A12.8,12.8,0,0,1,106.66,73.7Zm0-21.38a8.6,8.6,0,1,0,8.59,8.6A8.61,8.61,0,0,0,106.66,52.32Z"/><path class="cls-1" d="M71.77,187.15a9.43,9.43,0,0,1-7.33-3.5,9.42,9.42,0,0,1-16.75-5.92V138a7.55,7.55,0,0,1-3,.93A7.91,7.91,0,0,1,36,131V100.27A13.76,13.76,0,0,1,49.78,86.53H78.84a2.1,2.1,0,0,1,2,2.8,10.6,10.6,0,0,0-.62,3.54v33.39a4.1,4.1,0,0,0,.67,2.24,2.22,2.22,0,0,1,.33,1.12v1.54c0,.36,0,.66,0,.7h0v45.87A9.43,9.43,0,0,1,71.77,187.15Zm-5.23-9.42a5.23,5.23,0,0,0,10.46,0V130.19a8.27,8.27,0,0,1-1-3.93V92.87a14.06,14.06,0,0,1,.17-2.15H49.79a9.56,9.56,0,0,0-9.56,9.55V131a3.75,3.75,0,0,0,1.22,2.76,3.66,3.66,0,0,0,2.88.95,3.89,3.89,0,0,0,3.36-4v-21.1a2.1,2.1,0,1,1,4.19,0v68.07a5.23,5.23,0,0,0,10.46,0V142.29a2.1,2.1,0,0,1,4.2,0Z"/><path class="cls-1" d="M64.44,82.78A11.94,11.94,0,1,1,76.38,70.85,11.94,11.94,0,0,1,64.44,82.78Zm0-19.68a7.75,7.75,0,1,0,7.75,7.75A7.75,7.75,0,0,0,64.44,63.1Z"/><path class="cls-1" d="M156.21,187.15a9.43,9.43,0,0,1-7.33-3.5,9.42,9.42,0,0,1-16.75-5.92v-47a2.16,2.16,0,0,1,.09-.62,22.4,22.4,0,0,0,.92-3.88V92.87a10.37,10.37,0,0,0-.63-3.54,2.1,2.1,0,0,1,2-2.8h29a13.76,13.76,0,0,1,13.75,13.74V131a7.93,7.93,0,0,1-8.69,7.89,7.55,7.55,0,0,1-3-.93v39.76A9.44,9.44,0,0,1,156.21,187.15ZM151,177.73a5.23,5.23,0,0,0,10.46,0V130.92a.81.81,0,0,1,0-.16v-21.1a2.1,2.1,0,1,1,4.19,0v21a.81.81,0,0,1,0,.16,3.9,3.9,0,0,0,3.36,3.94,3.64,3.64,0,0,0,2.87-.95,3.72,3.72,0,0,0,1.23-2.76V100.27a9.56,9.56,0,0,0-9.56-9.55H137.17a15.44,15.44,0,0,1,.16,2.15v33.39a21.9,21.9,0,0,1-1,4.82v46.65a5.23,5.23,0,0,0,10.46,0V142.29a2.1,2.1,0,0,1,4.2,0Z"/><path class="cls-1" d="M114.62,187.06a10.06,10.06,0,0,1-8-3.92,10,10,0,0,1-18-6.14V133.51a8.07,8.07,0,0,1-3.41,1.14A8.5,8.5,0,0,1,76,126.26V92.87a14.6,14.6,0,0,1,.88-5,14.75,14.75,0,0,1,13.87-9.79h31.84a14.77,14.77,0,0,1,13.88,9.79h0a14.58,14.58,0,0,1,.87,5v33.39a8.49,8.49,0,0,1-9.24,8.39,8,8,0,0,1-3.41-1.14V177A10.07,10.07,0,0,1,114.62,187.06Zm-8-12.15a2.09,2.09,0,0,1,2.1,2.09,5.86,5.86,0,0,0,11.72,0V126a2.1,2.1,0,0,1,2.1-2.09h0a2.1,2.1,0,0,1,2.1,2.09,4.4,4.4,0,0,0,3.8,4.46,4.22,4.22,0,0,0,4-1.95,4.17,4.17,0,0,0,.68-2.26V92.87a10.37,10.37,0,0,0-.63-3.54,10.58,10.58,0,0,0-9.93-7H90.74A10.58,10.58,0,0,0,80.19,92.87v33.39a4.1,4.1,0,0,0,.67,2.24,4.21,4.21,0,0,0,4,2A4.41,4.41,0,0,0,88.65,126a2.1,2.1,0,0,1,4.19,0v51a5.87,5.87,0,0,0,11.73,0A2.09,2.09,0,0,1,106.66,174.91Z"/><path class="cls-1" d="M148.88,82.78a11.94,11.94,0,1,1,11.94-11.93A11.95,11.95,0,0,1,148.88,82.78Zm0-19.68a7.75,7.75,0,1,0,7.74,7.75A7.75,7.75,0,0,0,148.88,63.1Z"/><path class="cls-1" d="M106.66,179.1a2.1,2.1,0,0,1-2.09-2.1V138.73a2.1,2.1,0,1,1,4.19,0V177A2.1,2.1,0,0,1,106.66,179.1Z"/><path class="cls-1" d="M90.74,128.09a2.1,2.1,0,0,1-2.09-2.1V100a2.1,2.1,0,1,1,4.19,0v26A2.1,2.1,0,0,1,90.74,128.09Z"/><path class="cls-1" d="M122.58,128.11a2.1,2.1,0,0,1-2.1-2.1V100a2.1,2.1,0,0,1,4.2,0V126A2.1,2.1,0,0,1,122.58,128.11Z"/></svg>