<svg id="Layer_1" data-name="Layer 1" xmlns="http://www.w3.org/2000/svg" viewBox="0 0 227.28 191.28"><defs><style>.cls-1{fill:#fff;}</style></defs><title>Growly BIS</title><path class="cls-1" d="M90.12,108.67h-46A18.21,18.21,0,0,1,25.94,90.48V75.94A18.21,18.21,0,0,1,44.13,57.75h46a2.1,2.1,0,0,1,2.09,2.1v46.73A2.1,2.1,0,0,1,90.12,108.67ZM44.13,62a14,14,0,0,0-14,14V90.48a14,14,0,0,0,14,14H88V62Z"/><path class="cls-1" d="M160.2,136.92a2.09,2.09,0,0,1-1.32-.47l-7.76-6.25a97.52,97.52,0,0,0-61-21.53,2.1,2.1,0,0,1-2.1-2.09V59.85a2.1,2.1,0,0,1,2.1-2.1,97.51,97.51,0,0,0,61-21.52L158.88,30a2.1,2.1,0,0,1,3.42,1.63V134.82a2.1,2.1,0,0,1-1.2,1.89A2,2,0,0,1,160.2,136.92Zm-68-32.42a101.76,101.76,0,0,1,61.54,22.43l4.35,3.51V36l-4.35,3.5A101.7,101.7,0,0,1,92.21,61.92Z"/><path class="cls-1" d="M59.68,142.39a9.86,9.86,0,0,1-9.11-13.63l9.52-23A2.11,2.11,0,0,1,62,104.48h16.8a2.09,2.09,0,0,1,1.93,2.9l-12,28.92A9.84,9.84,0,0,1,59.68,142.39Zm3.75-33.72-9,21.7a5.66,5.66,0,0,0,5.23,7.83,5.65,5.65,0,0,0,5.23-3.5l10.78-26Z"/><path class="cls-1" d="M165.22,102.5h-5a2.09,2.09,0,0,1-2.1-2.09V66a2.1,2.1,0,0,1,2.1-2.1h5a13.23,13.23,0,0,1,13.22,13.22V89.29A13.23,13.23,0,0,1,165.22,102.5Zm-2.92-4.19h2.92a9,9,0,0,0,9-9V77.14a9,9,0,0,0-9-9H162.3Z"/></svg>