<svg id="Layer_1" data-name="Layer 1" xmlns="http://www.w3.org/2000/svg" viewBox="0 0 229.67 235.32"><defs><style>.cls-1{fill:#fff;}</style></defs><title>Growly BIS</title><path class="cls-1" d="M71.07,187.1H50.36a2.1,2.1,0,0,1-2.1-2.09V127a2.1,2.1,0,0,1,2.1-2.1H71.07a2.1,2.1,0,0,1,2.1,2.1v58A2.1,2.1,0,0,1,71.07,187.1Zm-18.62-4.19H69V129.13H52.45Z"/><path class="cls-1" d="M104.86,153.9a2.1,2.1,0,0,1-.62-4.1l14.84-4.6a2.17,2.17,0,0,1,.91-.08L147.76,149a3.4,3.4,0,0,0,3.77-2.6l.24-1.05a3.39,3.39,0,0,0-2.52-4L120,134.43a9.23,9.23,0,0,0-3.81-.09l-44.74,8.27a2.1,2.1,0,1,1-.77-4.13l44.74-8.26a13.43,13.43,0,0,1,5.54.13l29.24,6.91a7.59,7.59,0,0,1,5.65,9.05l-.24,1.05a7.61,7.61,0,0,1-8.44,5.82l-27.31-3.84-14.39,4.47A2.27,2.27,0,0,1,104.86,153.9Z"/><path class="cls-1" d="M102.94,175.74a274.67,274.67,0,0,1-32.11-1.89,2.09,2.09,0,1,1,.49-4.16,268.06,268.06,0,0,0,102.14-7.6l5.64-1.53a3.39,3.39,0,0,0-.89-6.66l-30.79-.7a2.1,2.1,0,1,1,.1-4.19l30.74.7h0a7.58,7.58,0,0,1,1.94,14.89l-5.64,1.53A272.09,272.09,0,0,1,102.94,175.74Z"/><path class="cls-1" d="M116.8,83.49a13.66,13.66,0,0,1-11.17-5.66A2.1,2.1,0,1,1,109,75.28c5.2,6.78,12.56,3,12.87,2.85l.19-.08a4.64,4.64,0,0,0,2.55-4.9,5.91,5.91,0,0,0-4-5l-8.24-2.45c-4.55-1.34-6.93-4.36-6.88-8.73,0-2.12,1-9.08,11.91-8.92A11.74,11.74,0,0,1,128.77,56a2.1,2.1,0,0,1-4,1.17c-.15-.51-1.66-4.84-7.46-4.91-5,0-7.64,1.55-7.68,4.77,0,1.74.43,3.65,3.88,4.67l8.23,2.45c.24.07,6.43,1.92,7,8.59a8.92,8.92,0,0,1-5,9.12A15.67,15.67,0,0,1,116.8,83.49Z"/><path class="cls-1" d="M117.3,52.29a2.09,2.09,0,0,1-2.09-2.09V43.7a2.1,2.1,0,1,1,4.19,0v6.5A2.1,2.1,0,0,1,117.3,52.29Z"/><path class="cls-1" d="M117.3,90.41a2.09,2.09,0,0,1-2.09-2.1v-6.5a2.1,2.1,0,1,1,4.19,0v6.5A2.1,2.1,0,0,1,117.3,90.41Z"/><path class="cls-1" d="M117,103.12a36.26,36.26,0,1,1,36.27-36.26A36.3,36.3,0,0,1,117,103.12Zm0-68.33A32.07,32.07,0,1,0,149.1,66.86,32.11,32.11,0,0,0,117,34.79Z"/></svg>