<svg id="Layer_1" data-name="Layer 1" xmlns="http://www.w3.org/2000/svg" viewBox="0 0 270.29 187.22"><defs><style>.cls-1{fill:#fff;}</style></defs><title>Growly BIS</title><path class="cls-1" d="M170.52,124.33a1.79,1.79,0,0,1-.6-.09h0l-.06,0h0a2.1,2.1,0,1,1,1.26-4h0a2.14,2.14,0,0,1,1.41,2.6h0v0h0A2.07,2.07,0,0,1,170.52,124.33Z"/><path class="cls-1" d="M110.72,124.63h-.22a10,10,0,0,1-1.86-.37,2.09,2.09,0,0,1,1.17-4,6.82,6.82,0,0,0,1.13.22,2.1,2.1,0,0,1-.22,4.18Z"/><path class="cls-1" d="M114.1,124.32a2.12,2.12,0,0,1-2-1.5,2.11,2.11,0,0,1,1.39-2.59l.11,0a2.11,2.11,0,0,1,2.6,1.39,2,2,0,0,1,.1.63,2.08,2.08,0,0,1-1.43,2l-.17,0A2.22,2.22,0,0,1,114.1,124.32Z"/><path class="cls-1" d="M111.64,124.68h0l-.53,0h-.06a2.13,2.13,0,0,1-2-2.2,2.07,2.07,0,0,1,2.16-2h.38a2.1,2.1,0,1,1,0,4.19Z"/><path class="cls-1" d="M112.23,124.66a2.14,2.14,0,0,1-2.15-2,2.07,2.07,0,0,1,1.93-2.21h.11l.22,0h0a2.1,2.1,0,0,1,.57,4.15l-.25,0h0l-.38,0h-.09Z"/><path class="cls-1" d="M173,124.68a2.1,2.1,0,0,1,0-4.19h.38a2.1,2.1,0,0,1,.24,4.19l-.12-2.09,0,2.09A1.83,1.83,0,0,1,173,124.68Z"/><path class="cls-1" d="M173.88,124.63a2.1,2.1,0,0,1-.22-4.18,6.16,6.16,0,0,0,1.15-.23,2.1,2.1,0,0,1,1.19,4,9.5,9.5,0,0,1-1.91.38Z"/><path class="cls-1" d="M172.46,124.66h-.11l-.44,0-.24,0a2.1,2.1,0,0,1,.57-4.15h0l.33,0a2.1,2.1,0,0,1-.12,4.19Z"/><path class="cls-1" d="M175.49,124.31a2.1,2.1,0,0,1-.62-4.1,7,7,0,0,0,4.71-6.71,2.1,2.1,0,0,1,4.2,0v.37a10.75,10.75,0,0,1-7.68,10.35A2.15,2.15,0,0,1,175.49,124.31Z"/><path class="cls-1" d="M109.1,124.3a2.21,2.21,0,0,1-.62-.09,10.76,10.76,0,0,1-7.66-10.34v-.28s0-.09,0-.14a2.09,2.09,0,0,1,2.09-2h0a2.09,2.09,0,0,1,2.1,2.09,7,7,0,0,0,4.71,6.69,2.09,2.09,0,0,1-.63,4.09Z"/><path class="cls-1" d="M112.56,124.63a2.1,2.1,0,0,1-.21-4.18,7.24,7.24,0,0,0,1.13-.22,2.09,2.09,0,0,1,1.17,4,10,10,0,0,1-1.86.37h-.23Z"/><path class="cls-1" d="M114.19,124.3a2.1,2.1,0,0,1-.63-4.1,7,7,0,0,0,4.71-6.7,2.1,2.1,0,1,1,4.19,0v.37a10.76,10.76,0,0,1-7.66,10.34A2.15,2.15,0,0,1,114.19,124.3Z"/><path class="cls-1" d="M111.15,124.66H111l-.43,0-.27,0a2.1,2.1,0,0,1,.58-4.15h0l.22,0h.12a2.1,2.1,0,0,1-.13,4.19Z"/><path class="cls-1" d="M111.64,124.68a2.1,2.1,0,0,1,0-4.19H112a2.1,2.1,0,0,1,.23,4.19l-.12-2.09.1,2.09h0l-.53,0Z"/><path class="cls-1" d="M109.23,124.34a2.08,2.08,0,0,1-.6-.09l-.14,0a2.08,2.08,0,0,1-1.49-2,2.15,2.15,0,0,1,.09-.61,2.09,2.09,0,0,1,2.61-1.4l.14,0a2.09,2.09,0,0,1,1.49,2,2.15,2.15,0,0,1-.09.61A2.1,2.1,0,0,1,109.23,124.34Z"/><path class="cls-1" d="M175.42,124.33a2.1,2.1,0,0,1-.86-4h0l.14,0h0l.08,0a2.15,2.15,0,0,1,2.62,1.38h0v0h0a2,2,0,0,1-1.27,2.54h-.08l-.08,0H176A2.09,2.09,0,0,1,175.42,124.33Z"/><path class="cls-1" d="M173.53,124.66a2.13,2.13,0,0,1-2.13-2,2.07,2.07,0,0,1,1.95-2.2h.3a2.09,2.09,0,0,1,.65,4.13l-.29,0-.37,0h-.11Zm.35-2.12h0Z"/><path class="cls-1" d="M173,124.68a2.27,2.27,0,0,0-.52,0,2.12,2.12,0,0,1-2-2.21,2.05,2.05,0,0,1,1.7-2,2.22,2.22,0,0,1,.45,0H173a2.1,2.1,0,1,1,0,4.19Z"/><path class="cls-1" d="M172.05,124.64l-.22,0h0a9.88,9.88,0,0,1-1.89-.37,2.1,2.1,0,0,1,1.18-4,5.58,5.58,0,0,0,1.15.23,2.1,2.1,0,0,1-.21,4.19Z"/><path class="cls-1" d="M170.43,124.31a2.08,2.08,0,0,1-.6-.09,10.75,10.75,0,0,1-7.69-10.35v-.16s0-.18,0-.24a2.08,2.08,0,0,1,2.09-2.07h0a2.11,2.11,0,0,1,2.09,2.12,7,7,0,0,0,4.72,6.69,2.1,2.1,0,0,1-.63,4.1Z"/><path class="cls-1" d="M93.44,125.1H68.52a11.6,11.6,0,0,1-9.51-5,10.66,10.66,0,0,1-7.63,4.51A10.83,10.83,0,0,1,39.5,113.87V88.3A19.56,19.56,0,0,1,59,68.77h43.88a19.53,19.53,0,0,1,9.77,2.63,2.09,2.09,0,0,1,0,3.63A15.4,15.4,0,0,0,105,88.3v25.29A11.6,11.6,0,0,1,93.44,125.1Zm-32.3-11.6a7.39,7.39,0,0,0,7.38,7.41H93.44a7.4,7.4,0,0,0,7.38-7.26V88.3a19.62,19.62,0,0,1,6.64-14.65,15.47,15.47,0,0,0-4.54-.69H59A15.36,15.36,0,0,0,43.7,88.3v25.57a6.67,6.67,0,0,0,2.17,4.91A6.53,6.53,0,0,0,51,120.46a6.87,6.87,0,0,0,6-7V102.35a2.1,2.1,0,0,1,4.19,0Z"/><path class="cls-1" d="M81,61.08A16.83,16.83,0,1,1,97.81,44.25,16.85,16.85,0,0,1,81,61.08Zm0-29.47A12.64,12.64,0,1,0,93.62,44.25,12.65,12.65,0,0,0,81,31.61Z"/><path class="cls-1" d="M216.08,125.1H191.16a11.61,11.61,0,0,1-11.57-11.42V88.3A15.39,15.39,0,0,0,171.91,75a2.11,2.11,0,0,1-1-1.82,2.08,2.08,0,0,1,1-1.81,19.53,19.53,0,0,1,9.77-2.63h43.88A19.56,19.56,0,0,1,245.1,88.3v25.57a10.81,10.81,0,0,1-11.88,10.77,10.68,10.68,0,0,1-7.63-4.51A11.59,11.59,0,0,1,216.08,125.1ZM177.14,73.65a19.58,19.58,0,0,1,6.64,14.65v25.35a7.41,7.41,0,0,0,7.38,7.26h24.92a7.39,7.39,0,0,0,7.38-7.23V102.35a2.1,2.1,0,0,1,4.19,0v11c0,.06,0,.13,0,.19a6.87,6.87,0,0,0,6,6.94,6.53,6.53,0,0,0,5.12-1.69,6.66,6.66,0,0,0,2.17-4.9V88.3A15.36,15.36,0,0,0,225.56,73H181.68A15.19,15.19,0,0,0,177.14,73.65Z"/><path class="cls-1" d="M203.62,61.08a16.83,16.83,0,1,1,16.83-16.83A16.85,16.85,0,0,1,203.62,61.08Zm0-29.47a12.64,12.64,0,1,0,12.64,12.64A12.65,12.65,0,0,0,203.62,31.61Z"/><path class="cls-1" d="M142.3,61.08a16.83,16.83,0,1,1,16.83-16.83A16.85,16.85,0,0,1,142.3,61.08Zm0-29.47a12.64,12.64,0,1,0,12.64,12.64A12.65,12.65,0,0,0,142.3,31.61Z"/><path class="cls-1" d="M154.77,125.1H129.84a11.54,11.54,0,0,1-9.5-5,10.75,10.75,0,0,1-5.52,4.07l-.15,0a10.52,10.52,0,0,1-1.89.37l-.45,0h-.21q-.48,0-1,0h-.11l-.55,0a10,10,0,0,1-1.86-.37l-.15,0a11.24,11.24,0,0,1-7.66-10.48s0-.1,0-.14V88.3a19.57,19.57,0,0,1,19.54-19.53h43.89A19.52,19.52,0,0,1,174,71.4h0a19.59,19.59,0,0,1,9.77,16.9v25.35a1.93,1.93,0,0,1,0,.24,11.2,11.2,0,0,1-7.65,10.32l-.15,0a9.48,9.48,0,0,1-1.88.37l-.46,0h-.15a9,9,0,0,1-1,0h-.21l-.39,0a10.77,10.77,0,0,1-1.91-.38l-.12,0a10.76,10.76,0,0,1-5.55-4.09A11.61,11.61,0,0,1,154.77,125.1Zm-34.41-13.7a2.1,2.1,0,0,1,2.1,2.1,7.39,7.39,0,0,0,7.38,7.41h24.93a7.42,7.42,0,0,0,7.37-7.24s0-.16,0-.2a2.08,2.08,0,0,1,2.09-2.07h0a2.11,2.11,0,0,1,2.09,2.12,7,7,0,0,0,4.72,6.69,6.53,6.53,0,0,0,1.2.24l.32,0a5.11,5.11,0,0,0,.66,0h.41a6.77,6.77,0,0,0,1.14-.23l.11,0a7,7,0,0,0,4.68-6.7c0-.06,0-.12,0-.17v-25A15.39,15.39,0,0,0,164.25,73H120.36A15.38,15.38,0,0,0,105,88.3v25.22a7,7,0,0,0,4.71,6.69l.11,0a6.68,6.68,0,0,0,1.1.21l.22,0H112l.32,0a6,6,0,0,0,1.12-.22l.11,0a7,7,0,0,0,4.7-6.7A2.1,2.1,0,0,1,120.36,111.4Z"/><path class="cls-1" d="M120.36,115.62a2.1,2.1,0,0,1-2.09-2.09V99.69a2.1,2.1,0,0,1,4.19,0v13.84A2.1,2.1,0,0,1,120.36,115.62Z"/><path class="cls-1" d="M164.25,115.62a2.1,2.1,0,0,1-2.1-2.09V99.69a2.1,2.1,0,0,1,4.19,0v13.84A2.1,2.1,0,0,1,164.25,115.62Z"/></svg>